<?xml version="1.0" encoding="UTF-8" standalone="no"?>
<svg
   xmlns:dc="http://purl.org/dc/elements/1.1/"
   xmlns:cc="http://creativecommons.org/ns#"
   xmlns:rdf="http://www.w3.org/1999/02/22-rdf-syntax-ns#"
   xmlns:svg="http://www.w3.org/2000/svg"
   xmlns="http://www.w3.org/2000/svg"
   xmlns:sodipodi="http://sodipodi.sourceforge.net/DTD/sodipodi-0.dtd"
   xmlns:inkscape="http://www.inkscape.org/namespaces/inkscape"
   width="30"
   height="30"
   id="svg2"
   version="1.1"
   inkscape:version="0.48.5 r10040"
   sodipodi:docname="futbol.svg">
  <metadata
     id="metadata9">
    <rdf:RDF>
      <cc:Work
         rdf:about="">
        <dc:format>image/svg+xml</dc:format>
        <dc:type
           rdf:resource="http://purl.org/dc/dcmitype/StillImage" />
        <dc:title></dc:title>
      </cc:Work>
    </rdf:RDF>
  </metadata>
  <defs
     id="defs7" />
  <sodipodi:namedview
     pagecolor="#ffffff"
     bordercolor="#666666"
     borderopacity="1"
     objecttolerance="10"
     gridtolerance="10"
     guidetolerance="10"
     inkscape:pageopacity="0"
     inkscape:pageshadow="2"
     inkscape:window-width="1366"
     inkscape:window-height="706"
     id="namedview5"
     showgrid="false"
     inkscape:zoom="11.125147"
     inkscape:cx="-12.77911"
     inkscape:cy="17.271164"
     inkscape:window-x="-8"
     inkscape:window-y="-8"
     inkscape:window-maximized="1"
     inkscape:current-layer="svg2" />
  <g
     id="layer1"
     transform="matrix(0.86355017,0,0,0.86354925,2.0467475,-880.81331)"
     style="fill:#808080;opacity:0.2">
    <path
       style="fill:#808080;stroke:#000000;stroke-width:0.01673173000000000px;stroke-linecap:butt;stroke-linejoin:miter;stroke-opacity:1"
       d="M 10.197992,1038.7007 15,1042.1809 l 4.802008,-3.4802 -1.823759,-5.6219 H 12.038483 z M 15,1052.3538 q 3.045175,0 5.822643,-1.1879 2.777468,-1.188 4.785276,-3.1958 2.007809,-2.0078 3.195762,-4.7853 1.187953,-2.7775 1.187953,-5.8226 0,-3.0452 -1.187953,-5.8227 -1.187953,-2.7774 -3.195762,-4.7852 -2.007808,-2.0079 -4.785276,-3.1958 -2.777468,-1.188 -5.822643,-1.188 -3.045175,0 -5.8226437,1.188 -2.7774679,1.1879 -4.785276,3.1958 -2.0078081,2.0078 -3.1957613,4.7852 -1.18795313,2.7775 -1.18795313,5.8227 0,3.0451 1.18795313,5.8226 1.1879532,2.7775 3.1957613,4.7853 2.0078081,2.0078 4.785276,3.1958 2.7774687,1.1879 5.8226437,1.1879 z m 10.356943,-22.5878 q 2.493029,3.3965 2.493029,7.5962 v 0.05 l -1.706636,-1.4892 -4.015617,3.7479 1.054099,5.4044 2.242052,-0.2008 q -2.50976,3.4468 -6.508644,4.7184 l 0.886782,-2.0748 L 15,1044.858 l -4.802008,2.6603 0.886782,2.0748 q -3.9988844,-1.2716 -6.5086446,-4.7184 l 2.2587842,0.2008 1.0373675,-5.4044 -4.0156163,-3.7479 -1.7066369,1.4892 v -0.05 q 0,-4.1997 2.4930284,-7.5962 l 0.5019521,2.2086 5.4545456,-0.6693 2.325711,-4.9861 -1.940882,-1.1545 q 1.957613,-0.6525 4.015617,-0.6525 2.058004,0 4.015617,0.6525 l -1.940882,1.1545 2.325711,4.9861 5.454546,0.6693 z"
       id="path7"
       inkscape:connector-curvature="0" />
  </g>
  <path
     style="fill:none;stroke:#7c7c7c;stroke-width:1px;stroke-linecap:butt;stroke-linejoin:miter;stroke-opacity:1;opacity:0.2"
     d="M 0,0 30,30"
     id="path2986"
     inkscape:connector-curvature="0"
     sodipodi:nodetypes="cc" />
</svg>
