<?xml version="1.0" encoding="utf-8"?>
<!-- Generator: Adobe Illustrator 16.0.0, SVG Export Plug-In . SVG Version: 6.00 Build 0)  -->
<!DOCTYPE svg PUBLIC "-//W3C//DTD SVG 1.1//EN" "http://www.w3.org/Graphics/SVG/1.1/DTD/svg11.dtd">
<svg version="1.1" id="Layer_1" xmlns="http://www.w3.org/2000/svg" xmlns:xlink="http://www.w3.org/1999/xlink" x="0px" y="0px"
	 width="30px" height="30px" viewBox="0 0 30 30" enable-background="new 0 0 30 30" xml:space="preserve">
<g>
	<polygon points="132.464,100.858 135.621,100.858 135.621,93.792 133.664,93.792 133.664,99.069 132.936,99.069 132.936,93.792 
		130.988,93.792 130.988,97.613 130.261,97.613 130.261,93.792 128.303,93.792 128.303,99.403 130.988,99.403 	"/>
	<polygon points="125.11,93.029 123.312,93.029 123.312,97.31 124.674,99.408 127.582,99.408 127.591,95.602 125.782,95.602 
		125.782,97.854 125.11,97.854 125.11,94.919 127.582,94.919 127.582,93.811 125.11,93.811 	"/>
	<path d="M135.378,89.082c-2.577-0.955-8.828-0.874-12.037,0c-1.724,3.063-3.36,8.47-3.719,11.447
		c3.216,3.336,7.359,6.105,9.737,7.075c2.86-1.273,7.743-4.992,9.738-7.075C138.944,98,137.117,91.402,135.378,89.082z
		 M136.044,101.12l-0.265,1.009h-3.748l-1.476-1.446l-6.336-0.002l-1.545-2.372v-4.788l0.245-0.882h2.581v0.781l10.543-0.007V101.12
		z"/>
</g>
<g>
	<polygon points="19.758,19.38 24.595,19.38 24.595,8.551 21.597,8.551 21.597,16.638 20.481,16.638 20.481,8.551 17.495,8.551 
		17.495,14.407 16.381,14.407 16.381,8.551 13.38,8.551 13.38,17.149 17.495,17.149 	"/>
	<polygon points="8.487,7.383 5.73,7.383 5.73,13.943 7.819,17.158 12.276,17.158 12.289,11.324 9.518,11.324 9.518,14.777 
		8.487,14.777 8.487,10.278 12.276,10.278 12.276,8.58 8.487,8.58 	"/>
	<path d="M24.224,1.333c-3.949-1.464-13.53-1.339-18.448,0c-2.642,4.695-5.15,12.98-5.699,17.543
		C5.005,23.989,11.355,28.234,15,29.719c4.383-1.951,11.867-7.651,14.924-10.843C29.688,15,26.889,4.89,24.224,1.333z
		 M25.244,19.781l-0.405,1.547h-5.744l-2.261-2.218l-9.711-0.003l-2.368-3.633V8.135l0.376-1.352h3.955v1.197l16.158-0.01V19.781z"
		/>
</g>
</svg>
