<?xml version="1.0" encoding="utf-8"?>
<!-- Generator: Adobe Illustrator 16.0.0, SVG Export Plug-In . SVG Version: 6.00 Build 0)  -->
<!DOCTYPE svg PUBLIC "-//W3C//DTD SVG 1.1//EN" "http://www.w3.org/Graphics/SVG/1.1/DTD/svg11.dtd">
<svg version="1.1" id="Layer_1" xmlns="http://www.w3.org/2000/svg" xmlns:xlink="http://www.w3.org/1999/xlink" x="0px" y="0px"
	 width="612px" height="792px" viewBox="0 0 612 792" enable-background="new 0 0 612 792" xml:space="preserve">
<g>
	<path fill="#FFFFFF" d="M210.05,231.225c-7.398-6.385-17.016-10.266-27.551-10.266c-23.333,0-42.242,18.917-42.242,42.245
		c0,6.324,1.435,12.31,3.928,17.695C162.451,260.188,184.823,243.187,210.05,231.225z"/>
	<path fill="#FFFFFF" d="M297.14,604.461c104.289,0,188.829-84.544,188.829-188.829c0-93.393-67.803-170.891-156.867-186.082v-7.681
		v-7.688v-20.024h16.363c5.432,0,9.825-5.792,9.825-12.946c0-7.151-4.394-12.947-9.825-12.947h-96.657
		c-5.422,0-9.817,5.795-9.817,12.947c0,7.154,4.395,12.946,9.817,12.946h16.374v20.017v7.688v7.682
		c-15.899,2.713-31.118,7.408-45.395,13.833c-25.82,11.615-48.562,28.841-66.649,50.158
		c-27.943,32.921-44.833,75.521-44.833,122.091C108.312,519.917,192.856,604.461,297.14,604.461z M185.895,305.274
		c10.631-10.711,22.779-19.9,36.111-27.209c22.326-12.245,47.93-19.234,75.148-19.234c86.455,0,156.796,70.339,156.796,156.8
		c0,86.455-70.342,156.797-156.796,156.797c-86.47,0-156.811-70.342-156.811-156.797C140.344,372.63,157.76,333.632,185.895,305.274
		z"/>
	<path fill="#FFFFFF" d="M202.333,510.438c6.066,6.074,12.717,11.555,19.842,16.373c3.565,2.408,7.258,4.654,11.053,6.706
		c18.998,10.321,40.77,16.181,63.911,16.181c2.886,0,5.755-0.085,8.611-0.265c14.235-0.903,27.861-4.025,40.55-9.029
		c5.074-2.001,10.001-4.298,14.752-6.893c3.801-2.054,7.48-4.306,11.05-6.707c7.142-4.818,13.785-10.307,19.839-16.374
		c24.263-24.263,39.273-57.775,39.273-94.805c0-37.024-15.011-70.547-39.273-94.81c-6.068-6.072-12.712-11.552-19.839-16.374
		c-3.569-2.405-7.257-4.647-11.05-6.712c-4.751-2.582-9.678-4.876-14.752-6.883c-12.682-5.001-26.315-8.131-40.55-9.031
		c-2.855-0.184-5.725-0.271-8.611-0.271c-23.149,0-44.913,5.864-63.911,16.179c-3.803,2.065-7.488,4.307-11.053,6.712
		c-7.14,4.822-13.783,10.302-19.842,16.374c-24.264,24.262-39.276,57.778-39.276,94.81
		C163.071,452.662,178.077,486.174,202.333,510.438z M297.14,308.936v100.451l-100.983,38.814
		C178.283,378.563,227.169,308.936,297.14,308.936z"/>
</g>
</svg>
